<?xml version="1.0" encoding="UTF-8" standalone="no"?>
<!DOCTYPE svg PUBLIC "-//W3C//DTD SVG 1.1//EN" "http://www.w3.org/Graphics/SVG/1.1/DTD/svg11.dtd">
<svg version="1.1" xmlns="http://www.w3.org/2000/svg" xmlns:xlink="http://www.w3.org/1999/xlink" preserveAspectRatio="xMidYMid meet" viewBox="8.881784197001252e-16 31.037721509119294 640.0157410724024 563.1754805425306" width="640.02" height="563.18"><defs><path d="M371.66 237.43L371.94 237.01" id="a1ulKgjEqP"></path><path d="M139.18 377.42C139.32 377.49 139.46 377.56 139.46 377.56" id="bPvPpmUZ8"></path><path d="M290.41 48.02C261.82 97.55 33.11 493.79 4.52 543.32C-1.46 553.73 -1.55 566.69 4.52 577.16C10.59 587.66 21.89 594.24 34.11 594.21C91.29 594.21 548.72 594.21 605.9 594.21C618.12 594.24 629.42 587.66 635.5 577.16C641.57 566.68 641.48 553.73 635.5 543.32C606.91 493.79 378.19 97.55 349.6 48.02C342.54 35.8 328.58 29.28 314.68 31.45C304.53 33.05 295.55 39.08 290.41 48.02Z" id="brMOcykui"></path><path d="M304.5 54.31C275.71 104.18 45.41 503.13 16.62 553C13.47 558.49 13.46 565.54 16.62 570.99C19.84 576.53 25.77 580.16 32.24 580.16C89.81 580.16 550.42 580.16 607.99 580.16C614.44 580.16 620.39 576.54 623.61 570.99C626.77 565.53 626.76 558.48 623.61 553C594.82 503.13 364.52 104.18 335.73 54.31C331.98 47.9 324.87 44.31 317.37 45.51C311.87 46.33 307.16 49.67 304.5 54.31ZM564.54 533.3L75.35 533.3L320.1 102.84L564.54 533.3Z" id="gh7mg3VJo"></path><path d="M182.98 351.5C180.95 361.9 181.06 356.97 180.95 435.17C180.85 494.27 180.92 507.17 181.3 508.18C181.55 508.84 182.8 510.8 184.09 512.54C191.48 522.65 201.41 531.22 209.88 534.82C214.72 536.88 217.65 537.48 222.84 537.51C228.07 537.51 229.98 537.16 233.99 535.46C238.21 533.69 240.82 531.73 249.25 524.17C260.41 514.18 263.37 512.6 271.1 512.57C279.15 512.51 280.9 513.52 293.06 525.31C300.41 532.45 304.77 535.2 311.25 536.78C313.72 537.38 314.98 537.48 320.06 537.48C324.42 537.48 326.62 537.35 328.32 536.94C334.81 535.49 339.16 532.93 345.68 526.8C355.4 517.63 357.98 515.42 360.21 514.34C365.51 511.81 372.86 511.78 378.05 514.31C381.19 515.8 384.04 518.1 389.55 523.54C399.87 533.81 405.93 537.1 415.37 537.57C423.84 537.98 431.54 535.9 439 531.13C442.03 529.2 448.09 523.67 450.88 520.35C453.43 517.31 455.86 513.81 457.75 510.49C457.84 510.33 458.29 509.54 459.11 508.12C459.11 465.16 459.11 441.3 459.11 436.53C459.11 359.85 459.14 362.25 457.33 352.45C451.47 320.81 432.2 292.18 403.73 272.84C382.37 258.3 357.04 249.7 330.14 247.87C325.68 247.55 315.67 247.49 311.35 247.74C247.37 251.41 194.06 294.49 182.98 351.5ZM407.5 292.4C417.18 300.93 424.92 310.29 430.98 320.85C438.16 333.27 442.07 344.65 444.54 360.2C445.06 363.67 445.13 369.8 445.24 434.41C445.25 439.1 445.29 462.58 445.38 504.83C444.29 506.44 443.68 507.34 443.56 507.52C436.42 518.26 427.85 524.36 419.03 524.93C415.65 525.15 413.04 524.68 410.08 523.38C408.23 522.56 406.52 521.14 398.99 514.28C389.9 505.97 387.84 504.39 383.21 502.4C378.61 500.44 375.89 499.96 369.2 499.96C364.25 499.96 362.82 500.09 360.52 500.66C352.86 502.52 348.92 505.21 337.38 516.4C332.61 521.04 329.58 523.19 326.34 524.27C325.01 524.71 323.55 524.84 320.06 524.84C311.98 524.84 310.62 524.05 297.83 511.69C292.33 506.38 289.64 504.39 285.22 502.43C280.69 500.44 277.66 499.9 271.1 499.93C264.55 499.99 260.72 500.75 255.74 503.09C251.07 505.27 246.99 508.31 239.39 515.26C232.35 521.71 229.53 523.7 226.36 524.55C222.88 525.5 219.22 524.96 214.62 522.78C208.83 520.03 200.85 512.83 195.9 505.84C195.83 505.73 195.44 505.2 194.75 504.23C194.84 462.17 194.88 438.8 194.89 434.12C195 370.06 195.07 363.64 195.59 360.04C197.26 349.1 199.98 339.65 204.2 330.33C218.59 298.63 249.12 273.91 285.36 264.62C293.72 262.47 301.49 261.2 311.88 260.35C315.95 260 330.73 260.48 335.89 261.11C363.66 264.46 387.67 274.95 407.5 292.4Z" id="cDXubSjSA"></path><path d="M262.39 319.61C260.75 322.02 259.53 324.73 258.45 328.27C257.72 330.74 257.69 331.21 257.69 348.34C257.69 364.56 257.72 366.08 258.35 368.26C261.59 379.76 270.89 388.39 283.47 391.55C286.61 392.31 287.52 392.4 292.36 392.4C298.11 392.37 300.62 391.96 305.25 390.29C317.52 385.77 325.81 375.43 326.86 363.36C327 361.43 327.07 353.72 327 346.16C326.86 331.15 326.65 329.13 324.73 324.64C320.76 315.28 312.43 308.39 301.6 305.49C298.95 304.79 297.66 304.63 293.06 304.54C289.09 304.44 287.03 304.54 285.25 304.92C275.46 306.91 267.41 312.06 262.39 319.61ZM312.43 331.15C312.96 332.73 313.06 334.28 313.1 341.33C313.1 345.91 313.03 349.7 312.96 349.77C312.89 349.83 312.12 349.64 311.21 349.29C304.49 346.89 296.58 349.83 293.48 355.87C292.64 357.45 292.54 358.05 292.54 360.99C292.54 364.05 292.6 364.46 293.62 366.36C295.78 370.5 300.1 373.19 305.12 373.53C305.3 373.55 306.2 373.61 307.83 373.72C306.7 374.65 306.08 375.17 305.95 375.27C304.91 376.13 302.95 377.33 301.6 377.93C290.2 383.02 276.82 377.99 272.43 366.99C271.63 364.94 271.63 364.94 271.63 348.5C271.63 333.2 271.66 331.94 272.29 330.33C274.76 323.79 280.2 319.04 286.99 317.56C289.75 316.96 294.87 316.93 297.34 317.53C304.52 319.23 310.17 324.32 312.43 331.15Z" id="i23cUUvvO7"></path><path d="M360.49 318.6C358.5 321.35 357.14 324.16 355.89 328.34C355.82 328.54 355.5 329.58 354.91 331.43L354.91 348.5L354.95 365.57C355.51 367.45 355.82 368.49 355.89 368.7C361.05 385.86 380.11 396.07 398.54 391.52C410.98 388.45 419.76 380.39 423.42 368.73C424.19 366.26 424.22 365.76 424.36 349.86C424.47 332.07 424.36 330.3 422.52 325.52C418.75 315.79 409.48 307.98 398.47 305.33C394.81 304.44 386.34 304.19 382.96 304.88C373.31 306.84 365.75 311.46 360.49 318.6ZM408.12 327.17C410.25 331.05 410.49 332.57 410.49 341.77C410.49 346.26 410.42 349.92 410.32 349.92C410.18 349.92 409.66 349.7 409.13 349.48C408.61 349.23 407.15 348.85 405.89 348.63C396.69 347.08 388.19 354.76 389.9 363.07C390.74 367.28 393.31 370.41 397.43 372.24C399.41 373.12 400.56 373.44 402.48 373.57C403.8 373.63 404.92 373.82 404.92 373.95C404.92 374.36 401.15 376.92 399.27 377.8C387.39 383.4 372.61 377.26 369.34 365.41C368.96 364.05 368.85 360.29 368.85 348.19C368.85 331.15 368.85 331.24 371.12 327.17C373.66 322.62 378.78 318.89 384.36 317.56C386.87 316.96 392.37 316.93 394.81 317.53C400.49 318.89 405.68 322.65 408.12 327.17Z" id="a7zwGORbP6"></path></defs><g><g><g><g><use xlink:href="#a1ulKgjEqP" opacity="1" fill="#ec1c24" fill-opacity="1"></use><g><use xlink:href="#a1ulKgjEqP" opacity="1" fill-opacity="0" stroke="#000000" stroke-width="1" stroke-opacity="0"></use></g></g><g><use xlink:href="#bPvPpmUZ8" opacity="1" fill="#ffffff" fill-opacity="1"></use><g><use xlink:href="#bPvPpmUZ8" opacity="1" fill-opacity="0" stroke="#000000" stroke-width="1" stroke-opacity="0"></use></g></g><g><use xlink:href="#brMOcykui" opacity="1" fill="#fdee1c" fill-opacity="1"></use><g><use xlink:href="#brMOcykui" opacity="1" fill-opacity="0" stroke="#000000" stroke-width="1" stroke-opacity="0"></use></g></g><g><use xlink:href="#gh7mg3VJo" opacity="1" fill="#010101" fill-opacity="1"></use><g><use xlink:href="#gh7mg3VJo" opacity="1" fill-opacity="0" stroke="#000000" stroke-width="1" stroke-opacity="0"></use></g></g></g><g><g><g><use xlink:href="#cDXubSjSA" opacity="1" fill="#000000" fill-opacity="1"></use><g><use xlink:href="#cDXubSjSA" opacity="1" fill-opacity="0" stroke="#000000" stroke-width="1" stroke-opacity="0"></use></g></g><g><use xlink:href="#i23cUUvvO7" opacity="1" fill="#000000" fill-opacity="1"></use><g><use xlink:href="#i23cUUvvO7" opacity="1" fill-opacity="0" stroke="#000000" stroke-width="1" stroke-opacity="0"></use></g></g></g><g><use xlink:href="#a7zwGORbP6" opacity="1" fill="#000000" fill-opacity="1"></use><g><use xlink:href="#a7zwGORbP6" opacity="1" fill-opacity="0" stroke="#000000" stroke-width="1" stroke-opacity="0"></use></g></g></g></g></g></svg>